<svg width="24" height="24" viewBox="0 0 24 24" fill="none" xmlns="http://www.w3.org/2000/svg">
<rect x="3" y="3" width="18" height="18" rx="8" stroke="black" stroke-width="2"/>
<path d="M9.89062 7.75H10.6094H15.9219C16.2135 7.76042 16.4531 7.86979 16.6406 8.07812C16.8385 8.28646 16.9375 8.53646 16.9375 8.82812C16.8854 9.45312 16.5469 9.79167 15.9219 9.84375H10.4219C10.026 9.86458 9.69792 10.0156 9.4375 10.2969C9.17708 10.5781 8.98438 10.901 8.85938 11.2656C8.74479 11.6198 8.6875 11.9844 8.6875 12.3594C8.6875 12.7344 8.74479 13.1042 8.85938 13.4688C8.98438 13.8229 9.17708 14.1406 9.4375 14.4219C9.69792 14.7031 10.026 14.8542 10.4219 14.875H15.9219C16.2135 14.8854 16.4531 14.9948 16.6406 15.2031C16.8385 15.4115 16.9375 15.6615 16.9375 15.9531C16.9271 16.2344 16.8229 16.474 16.625 16.6719C16.4375 16.8594 16.2031 16.9583 15.9219 16.9688H10.1875H9.89062C9.16146 16.9271 8.55729 16.651 8.07812 16.1406C7.60938 15.6198 7.27083 15.0312 7.0625 14.375C6.86458 13.7188 6.76562 13.0469 6.76562 12.3594C6.76562 11.6719 6.86979 11 7.07812 10.3438C7.28646 9.6875 7.625 9.10417 8.09375 8.59375C8.5625 8.07292 9.16146 7.79167 9.89062 7.75ZM16.9062 12.2969C16.9062 12.5885 16.8021 12.8333 16.5938 13.0312C16.3958 13.2396 16.151 13.3438 15.8594 13.3438H11.1406C10.849 13.3438 10.599 13.2448 10.3906 13.0469C10.1927 12.8385 10.0938 12.5885 10.0938 12.2969C10.0938 12.0052 10.1927 11.7552 10.3906 11.5469C10.599 11.349 10.849 11.25 11.1406 11.25H15.8594C16.151 11.25 16.3958 11.3542 16.5938 11.5625C16.8021 11.7604 16.9062 12.0052 16.9062 12.2969Z" fill="black"/>
</svg>
