<svg width="24" height="24" viewBox="0 0 24 24" fill="none" xmlns="http://www.w3.org/2000/svg">
<path d="M9.06755 2.92827C9.03078 2.40946 8.59825 2 8.07008 2C7.5178 2 7.07008 2.44772 7.07008 3V3.64827C4.96707 4.7398 3.40787 6.73313 2.85855 9.12982C2.38048 11.2156 2.38048 13.3861 2.85855 15.4719C3.55643 18.5168 5.88428 20.9106 8.88643 21.6313C10.9343 22.1229 13.0658 22.1229 15.1136 21.6313C18.1157 20.9106 20.4436 18.5167 21.1415 15.4719C21.6195 13.3861 21.6195 11.2156 21.1415 9.12983C20.5921 6.73314 19.0329 4.73979 16.9299 3.64827V3C16.9299 2.44772 16.4822 2 15.9299 2C15.4018 2 14.9692 2.40946 14.9325 2.92827C13.0007 2.49286 10.9993 2.49286 9.06755 2.92827Z" stroke="black" stroke-width="2" stroke-linecap="round"/>
<path d="M7.5 10.8571L8.5 11.7143L10.5 10M7.5 15.1429L8.5 16L10.5 14.2857M13 11.2857H16.5M13 15.5714H16.5" stroke="black" stroke-width="2" stroke-linecap="round" stroke-linejoin="round"/>
</svg>
