<svg width="24" height="24" viewBox="0 0 24 24" fill="none" xmlns="http://www.w3.org/2000/svg">
<path d="M3.35288 14.8117L4.32542 14.579L3.35288 14.8117ZM3.35288 8.83297L4.32542 9.0657L3.35288 8.83297ZM20.6471 8.83298L19.6746 9.0657L20.6471 8.83298ZM20.6471 14.8117L19.6746 14.579L20.6471 14.8117ZM15.0496 20.2988L14.8255 19.3242L15.0496 20.2988ZM8.95044 20.2988L8.72635 21.2734L8.95044 20.2988ZM8.95043 3.34591L9.17452 4.32048L8.95043 3.34591ZM15.0496 3.34591L14.8255 4.32048L15.0496 3.34591ZM4.32542 14.579C3.89153 12.7658 3.89153 10.8789 4.32542 9.0657L2.38033 8.60025C1.87322 10.7195 1.87322 12.9252 2.38033 15.0444L4.32542 14.579ZM19.6746 9.0657C20.1085 10.8789 20.1085 12.7658 19.6746 14.579L21.6197 15.0444C22.1268 12.9252 22.1268 10.7195 21.6197 8.60026L19.6746 9.0657ZM14.8255 19.3242C12.9671 19.7515 11.0329 19.7515 9.17453 19.3242L8.72635 21.2734C10.8796 21.7685 13.1204 21.7685 15.2737 21.2734L14.8255 19.3242ZM9.17452 4.32048C11.0329 3.89317 12.9671 3.89317 14.8255 4.32048L15.2737 2.37134C13.1204 1.87622 10.8796 1.87622 8.72634 2.37134L9.17452 4.32048ZM9.17453 19.3242C6.75871 18.7687 4.88653 16.9239 4.32542 14.579L2.38033 15.0444C3.12222 18.1448 5.58731 20.5516 8.72635 21.2734L9.17453 19.3242ZM15.2737 21.2734C18.4127 20.5516 20.8778 18.1448 21.6197 15.0444L19.6746 14.579C19.1135 16.9239 17.2413 18.7687 14.8255 19.3242L15.2737 21.2734ZM14.8255 4.32048C17.2413 4.87597 19.1135 6.72085 19.6746 9.0657L21.6197 8.60026C20.8778 5.49991 18.4127 3.09313 15.2737 2.37134L14.8255 4.32048ZM8.72634 2.37134C5.58731 3.09313 3.12222 5.49991 2.38033 8.60025L4.32542 9.0657C4.88653 6.72084 6.75871 4.87597 9.17452 4.32048L8.72634 2.37134ZM15.0805 21C15.0805 19.529 15.0828 18.5284 15.1855 17.7791C15.2841 17.0606 15.4579 16.7238 15.6946 16.4917L14.2946 15.0635C13.6173 15.7274 13.3341 16.5597 13.2041 17.5073C13.0783 18.4241 13.0805 19.5867 13.0805 21H15.0805ZM20.3222 13.8816C18.8787 13.8816 17.6975 13.8795 16.7671 14.0021C15.81 14.1283 14.9691 14.4023 14.2946 15.0635L15.6946 16.4917C15.9342 16.2569 16.2859 16.0829 17.0285 15.985C17.7978 15.8836 18.8233 15.8816 20.3222 15.8816V13.8816Z" fill="#191D23"/>
<path d="M9 9H12M9 12H14" stroke="#191D23" stroke-width="2" stroke-linecap="round"/>
</svg>
