<svg width="24" height="24" viewBox="0 0 24 24" fill="none" xmlns="http://www.w3.org/2000/svg">
<path d="M3.35288 15.0496L4.32645 14.8212L3.35288 15.0496ZM3.35288 8.95043L4.32645 9.1788L3.35288 8.95043ZM20.6471 8.95044L19.6736 9.1788L20.6471 8.95044ZM20.6471 15.0496L21.6207 15.2779L20.6471 15.0496ZM15.0496 20.6471L14.8212 19.6735L15.0496 20.6471ZM8.95044 20.6471L8.72207 21.6207L8.95044 20.6471ZM8.95043 3.35288L9.1788 4.32645L8.95043 3.35288ZM15.0496 3.35288L14.8212 4.32645L15.0496 3.35288ZM11 15.1208C11 15.6731 11.4477 16.1208 12 16.1208C12.5523 16.1208 13 15.6731 13 15.1208H11ZM8.87918 7.87918C8.3269 7.87918 7.87918 8.3269 7.87918 8.87918C7.87918 9.43147 8.3269 9.87918 8.87918 9.87918V7.87918ZM15.1208 9.87918C15.6731 9.87918 16.1208 9.43147 16.1208 8.87918C16.1208 8.3269 15.6731 7.87918 15.1208 7.87918V9.87918ZM4.32645 14.8212C3.89118 12.9656 3.89118 11.0344 4.32645 9.1788L2.3793 8.72206C1.87357 10.8781 1.87357 13.1219 2.3793 15.2779L4.32645 14.8212ZM19.6736 9.1788C20.1088 11.0344 20.1088 12.9656 19.6736 14.8212L21.6207 15.2779C22.1264 13.1219 22.1264 10.8781 21.6207 8.72207L19.6736 9.1788ZM14.8212 19.6735C12.9656 20.1088 11.0344 20.1088 9.1788 19.6735L8.72207 21.6207C10.8781 22.1264 13.1219 22.1264 15.2779 21.6207L14.8212 19.6735ZM9.1788 4.32645C11.0344 3.89118 12.9656 3.89118 14.8212 4.32645L15.2779 2.3793C13.1219 1.87357 10.8781 1.87357 8.72206 2.3793L9.1788 4.32645ZM9.1788 19.6735C6.77114 19.1088 4.89121 17.2289 4.32645 14.8212L2.3793 15.2779C3.11753 18.4251 5.57488 20.8825 8.72207 21.6207L9.1788 19.6735ZM15.2779 21.6207C18.4251 20.8825 20.8825 18.4251 21.6207 15.2779L19.6736 14.8212C19.1088 17.2289 17.2289 19.1088 14.8212 19.6735L15.2779 21.6207ZM14.8212 4.32645C17.2289 4.89121 19.1088 6.77114 19.6736 9.1788L21.6207 8.72207C20.8825 5.57488 18.4251 3.11753 15.2779 2.3793L14.8212 4.32645ZM8.72206 2.3793C5.57488 3.11753 3.11753 5.57488 2.3793 8.72206L4.32645 9.1788C4.89121 6.77114 6.77114 4.89121 9.1788 4.32645L8.72206 2.3793ZM11 8.87918V15.1208H13V8.87918H11ZM12 7.87918H8.87918V9.87918H12V7.87918ZM12 9.87918H15.1208V7.87918H12V9.87918Z" fill="black"/>
</svg>
